<svg xmlns="http://www.w3.org/2000/svg" viewBox="0 0 32 32" width="32" height="32">
  <rect width="32" height="32" rx="7" fill="#3b82f6"/>
  <g fill="none" stroke="#fff" stroke-width="1.8" stroke-linecap="round" stroke-linejoin="round">
    <path d="M14.4 21.2A2.4 2.4 0 0 0 12.7 19.5L5.4 17.6a.6.6 0 0 1 0-1.15l7.3-1.9A2.4 2.4 0 0 0 14.4 12.85L16.3 5.55a.6.6 0 0 1 1.15 0L19.35 12.85A2.4 2.4 0 0 0 21.05 14.55l7.3 1.9a.6.6 0 0 1 0 1.15l-7.3 1.9A2.4 2.4 0 0 0 19.35 21.2L17.45 28.5a.6.6 0 0 1-1.15 0z" transform="scale(0.85) translate(2.8 0)"/>
    <path d="M24 4v3M25.5 5.5h-3M7 23v2M8 24H6"/>
  </g>
</svg>
